{
  "source": "C:\\Users\\Peter\\Desktop\\stuff\\MIUN\\quantitative_research\\video_compression\\videos\\BVI-HD\\BVI-HD_CDVL_videos\\ORIG\\Fountain_1920x1080_50fps.mp4",
  "output": "C:\\Users\\Peter\\Desktop\\stuff\\MIUN\\quantitative_research\\video_compression\\compressed_videos\\BVI-HD\\h264\\4\\Fountain_1920x1080_50fps_h264.mp4",
  "codec": "h264",
  "ok": "Input #0, mov,mp4,m4a,3gp,3g2,mj2, from 'C:\\Users\\Peter\\Desktop\\stuff\\MIUN\\quantitative_research\\video_compression\\videos\\BVI-HD\\BVI-HD_CDVL_videos\\ORIG\\Fountain_1920x1080_50fps.mp4':\n  Metadata:\n    major_brand     : isom\n    minor_version   : 512\n    compatible_brands: isomiso2avc1mp41\n    encoder         : Lavf54.28.101\n  Duration: 00:00:05.00, start: 0.000000, bitrate: 603457 kb/s\n  Stream #0:0[0x1](und): Video: h264 (High 4:4:4 Predictive) (avc1 / 0x31637661), yuv420p(progressive), 1920x1080, 603453 kb/s, 50 fps, 50 tbr, 50 tbn (default)\n    Metadata:\n      handler_name    : VideoHandler\n      vendor_id       : [0][0][0][0]\n[out#0/mp4 @ 00000221bb369bc0] Codec AVOption b:a (set bitrate (in bits/s)) has not been used for any stream. The most likely reason is either wrong type (e.g. a video option with no video streams) or that it is a private option of some decoder which was not actually used for any stream.\nStream mapping:\n  Stream #0:0 -> #0:0 (h264 (native) -> h264 (libx264))\nPress [q] to stop, [?] for help\n[libx264 @ 00000221bb995980] using cpu capabilities: MMX2 SSE2Fast SSSE3 SSE4.2 AVX FMA3 BMI2 AVX2\n[libx264 @ 00000221bb995980] profile High, level 5.0, 4:2:0, 8-bit\n[libx264 @ 00000221bb995980] 264 - core 165 r3222 b35605a - H.264/MPEG-4 AVC codec - Copyleft 2003-2025 - http://www.videolan.org/x264.html - options: cabac=1 ref=5 deblock=1:0:0 analyse=0x3:0x113 me=hex subme=8 psy=1 psy_rd=1.00:0.00 mixed_ref=1 me_range=16 chroma_me=1 trellis=2 8x8dct=1 cqm=0 deadzone=21,11 fast_pskip=1 chroma_qp_offset=-2 threads=18 lookahead_threads=3 sliced_threads=0 nr=0 decimate=1 interlaced=0 bluray_compat=0 constrained_intra=0 bframes=3 b_pyramid=2 b_adapt=1 b_bias=0 direct=3 weightb=1 open_gop=0 weightp=2 keyint=250 keyint_min=25 scenecut=40 intra_refresh=0 rc_lookahead=50 rc=cbr mbtree=1 bitrate=4000 ratetol=1.0 qcomp=0.60 qpmin=0 qpmax=69 qpstep=4 vbv_maxrate=4000 vbv_bufsize=4000 nal_hrd=none filler=0 ip_ratio=1.40 aq=1:1.00\nOutput #0, mp4, to 'C:\\Users\\Peter\\Desktop\\stuff\\MIUN\\quantitative_research\\video_compression\\compressed_videos\\BVI-HD\\h264\\4\\Fountain_1920x1080_50fps_h264.mp4':\n  Metadata:\n    major_brand     : isom\n    minor_version   : 512\n    compatible_brands: isomiso2avc1mp41\n    encoder         : Lavf62.3.100\n  Stream #0:0(und): Video: h264 (avc1 / 0x31637661), yuv420p(tv, progressive), 1920x1080, q=2-31, 4000 kb/s, 50 fps, 12800 tbn (default)\n    Metadata:\n      encoder         : Lavc62.11.100 libx264\n      handler_name    : VideoHandler\n      vendor_id       : [0][0][0][0]\n    Side data:\n      cpb: bitrate max/min/avg: 4000000/0/4000000 buffer size: 4000000 vbv_delay: N/A\nframe=    0 fps=0.0 q=0.0 size=       0KiB time=N/A bitrate=N/A speed=N/A elapsed=0:00:00.53    \nframe=    0 fps=0.0 q=0.0 size=       0KiB time=N/A bitrate=N/A speed=N/A elapsed=0:00:01.14    \nframe=    0 fps=0.0 q=0.0 size=       0KiB time=N/A bitrate=N/A speed=N/A elapsed=0:00:01.72    \nframe=    4 fps=1.7 q=43.0 size=       0KiB time=N/A bitrate=N/A speed=N/A elapsed=0:00:02.29    \nframe=   21 fps=7.1 q=37.0 size=       0KiB time=00:00:00.38 bitrate=   1.0kbits/s speed=0.129x elapsed=0:00:02.94    \nframe=   41 fps= 11 q=37.0 size=       0KiB time=00:00:00.70 bitrate=   0.5kbits/s speed=0.194x elapsed=0:00:03.61    \nframe=   57 fps= 13 q=38.0 size=     256KiB time=00:00:01.02 bitrate=2056.4kbits/s speed=0.234x elapsed=0:00:04.35    \nframe=   69 fps= 14 q=38.0 size=     512KiB time=00:00:01.34 bitrate=3130.4kbits/s speed=0.268x elapsed=0:00:04.99    \nframe=   92 fps= 16 q=38.0 size=     512KiB time=00:00:01.76 bitrate=2383.3kbits/s speed=0.315x elapsed=0:00:05.58    \nframe=  112 fps= 18 q=38.0 size=     768KiB time=00:00:02.12 bitrate=2967.8kbits/s speed=0.343x elapsed=0:00:06.17    \nframe=  125 fps= 18 q=39.0 size=     768KiB time=00:00:02.46 bitrate=2557.7kbits/s speed=0.36x elapsed=0:00:06.82    \nframe=  134 fps= 18 q=39.0 size=    1024KiB time=00:00:02.64 bitrate=3177.6kbits/s speed=0.357x elapsed=0:00:07.39    \nframe=  147 fps= 18 q=39.0 size=    1024KiB time=00:00:02.90 bitrate=2892.8kbits/s speed=0.364x elapsed=0:00:07.96    \nframe=  162 fps= 19 q=39.0 size=    1280KiB time=00:00:03.12 bitrate=3360.9kbits/s speed=0.364x elapsed=0:00:08.57    \nframe=  192 fps= 21 q=39.0 size=    1536KiB time=00:00:03.76 bitrate=3346.6kbits/s speed=0.411x elapsed=0:00:09.13    \nframe=  200 fps= 21 q=39.0 size=    1536KiB time=00:00:03.96 bitrate=3177.6kbits/s speed=0.408x elapsed=0:00:09.71    \nframe=  217 fps= 21 q=39.0 size=    1792KiB time=00:00:04.28 bitrate=3430.0kbits/s speed=0.416x elapsed=0:00:10.28    \nframe=  240 fps= 22 q=-1.0 size=    2048KiB time=00:00:04.76 bitrate=3524.7kbits/s speed=0.44x elapsed=0:00:10.82    \n[mp4 @ 00000221bb37a980] Starting second pass: moving the moov atom to the beginning of the file\n[out#0/mp4 @ 00000221bb369bc0] video:2232KiB audio:0KiB subtitle:0KiB other streams:0KiB global headers:0KiB muxing overhead: 0.169739%\nframe=  250 fps= 23 q=-1.0 Lsize=    2235KiB time=00:00:04.96 bitrate=3692.2kbits/s speed=0.451x elapsed=0:00:10.99    \n[libx264 @ 00000221bb995980] frame I:2     Avg QP:36.80  size: 37704\n[libx264 @ 00000221bb995980] frame P:64    Avg QP:38.17  size: 14729\n[libx264 @ 00000221bb995980] frame B:184   Avg QP:40.32  size:  6883\n[libx264 @ 00000221bb995980] consecutive B-frames:  1.6%  0.8%  0.0% 97.6%\n[libx264 @ 00000221bb995980] mb I  I16..4: 58.5% 37.7%  3.8%\n[libx264 @ 00000221bb995980] mb P  I16..4:  4.0%  1.9%  0.1%  P16..4: 45.6%  3.7%  6.1%  0.0%  0.0%    skip:38.6%\n[libx264 @ 00000221bb995980] mb B  I16..4:  0.2%  0.2%  0.0%  B16..8: 51.2%  1.4%  0.1%  direct: 1.3%  skip:45.6%  L0:48.9% L1:50.7% BI: 0.4%\n[libx264 @ 00000221bb995980] 8x8 transform intra:35.3% inter:67.7%\n[libx264 @ 00000221bb995980] direct mvs  spatial:94.6% temporal:5.4%\n[libx264 @ 00000221bb995980] coded y,uvDC,uvAC intra: 25.5% 21.2% 3.3% inter: 6.4% 6.5% 0.0%\n[libx264 @ 00000221bb995980] i16 v,h,dc,p: 38% 26%  4% 32%\n[libx264 @ 00000221bb995980] i8 v,h,dc,ddl,ddr,vr,hd,vl,hu:  8%  3%  6% 13% 18% 16% 15% 10% 11%\n[libx264 @ 00000221bb995980] i4 v,h,dc,ddl,ddr,vr,hd,vl,hu: 10%  3%  9% 13% 15% 13% 11% 11% 15%\n[libx264 @ 00000221bb995980] i8c dc,h,v,p: 64% 26%  6%  4%\n[libx264 @ 00000221bb995980] Weighted P-Frames: Y:0.0% UV:0.0%\n[libx264 @ 00000221bb995980] ref P L0: 42.2%  9.4% 24.1% 12.2% 12.1%  0.1%\n[libx264 @ 00000221bb995980] ref B L0: 67.1% 20.6%  9.6%  2.8%\n[libx264 @ 00000221bb995980] ref B L1: 90.6%  9.4%\n[libx264 @ 00000221bb995980] kb/s:3655.21\n",
  "seconds": 11.414789199829102,
  "probe_out": {}
}